<svg width="602" height="446" viewBox="0 0 602 446" fill="none" xmlns="http://www.w3.org/2000/svg">
<path d="M471.571 82.5325C471.571 85.312 469.227 87.5649 466.334 87.5649C463.442 87.5649 461.098 85.312 461.098 82.5325C461.098 79.7516 463.442 77.4987 466.334 77.4987C469.227 77.4987 471.571 79.7516 471.571 82.5325Z" stroke="#00FBFF" stroke-width="1.33333" stroke-miterlimit="10"/>
<path d="M452.812 198.722L441.149 209.931L429.487 198.722L441.149 187.512L452.812 198.722Z" stroke="#00FBFF" stroke-width="1.33333" stroke-miterlimit="10"/>
<path d="M381.012 89.7295L390.162 98.5242" stroke="#00FBFF" stroke-width="1.33333" stroke-miterlimit="10"/>
<path d="M390.162 89.7295L381.011 98.5242" stroke="#00FBFF" stroke-width="1.33333" stroke-miterlimit="10"/>
<path d="M576.971 0.770793L586.122 9.56543" stroke="#00FBFF" stroke-width="1.33333" stroke-miterlimit="10"/>
<path d="M0.000488281 246.773H26.5178V223.341H59.9083V201.315H132.163V248.179L0.000488281 314.448V246.773Z" fill="#00269F"/>
<path d="M132.163 248.179H95.2095L0 300.3V314.448L132.163 248.179Z" fill="#010E5C"/>
<path d="M95.2102 248.179H132.164V201.316H95.2102V248.179Z" fill="#012084"/>
<path d="M93.3456 378.046H82.689V259.124H93.3456V378.046Z" fill="#010E5C"/>
<path d="M29.4137 421.934H18.7571V297.693H29.4137V421.934Z" fill="#010E5C"/>
<path d="M118.803 378.046H108.147V253.421H118.803V378.046Z" fill="#010E5C"/>
<path d="M143.842 59.0002C143.842 59.0002 154.711 57.6091 145.125 52.8065C138.502 49.4875 125.648 44.8674 122.794 44.7685C116.879 55.0608 115.145 72.9955 115.145 72.9955L120.856 74.0745L122.079 70.6437L121.977 74.5639L127.484 76.4263L135.03 78.3864L136.152 75.1521V78.7781L143.189 80.7395L141.454 63.0963L143.842 59.0002Z" fill="#00269F"/>
<path d="M140.216 84.682C140.216 84.682 120.665 77.43 110.202 77.0999C109.688 98.3627 107.458 117.649 107.458 117.649L128.21 124.406L135.928 103.143C135.928 103.143 141.074 101.165 139.701 95.8902C149.991 107.758 159.081 112.045 159.081 112.045L170.571 88.6381L168.171 83.5286L156.68 102.154L140.216 84.682Z" fill="#FF1076"/>
<path d="M143.842 59.0003C143.842 59.0003 144.508 69.0666 142.844 76.0964C135.364 76.4162 130.045 75.7765 130.045 75.7765L128.881 81.5283L124.901 80.8771L129.379 55.007C129.379 55.007 136.528 52.2904 143.842 59.0003Z" fill="#FFB369"/>
<path d="M142.882 57.7065C142.882 57.7065 138.905 61.4314 134.011 62.7055C129.116 63.9797 133.399 61.6266 133.399 61.6266C133.399 61.6266 127.479 63.7729 125.852 63.7832C127.993 53.0015 128.81 51.9239 128.81 51.9239C128.81 51.9239 141.557 55.3546 142.882 57.7065Z" fill="#00269F"/>
<path d="M130.045 66.3502C130.045 66.3502 127.385 60.7577 124.226 63.7942C121.068 66.8293 125.888 70.5041 128.382 69.7052" fill="#FFB369"/>
<path d="M111.156 87.7866L128.613 115.271L161.938 89.3433L160.703 85.2755L132.14 102.731L118.563 80.3611" fill="#FF1076"/>
<path d="M148.622 92.6587C145.955 94.4583 143.259 96.2141 140.543 97.9404C137.844 99.6911 135.099 101.374 132.365 103.072L132.002 103.298L131.775 102.934C129.461 99.2364 127.271 95.4653 125.022 91.7301C122.833 87.9602 120.641 84.1916 118.562 80.3614C121.008 83.9874 123.342 87.6751 125.678 91.3627C127.954 95.0825 130.293 98.7689 132.502 102.527L131.914 102.39C134.674 100.73 137.423 99.0553 140.217 97.4485C142.997 95.8172 145.794 94.2155 148.622 92.6587Z" fill="#A7005F"/>
<path d="M144.242 103.111C145.491 101.705 146.909 100.501 148.37 99.3466C149.848 98.2124 151.369 97.1284 153.062 96.2498C151.814 97.6575 150.395 98.8611 148.933 100.015C147.453 101.147 145.934 102.23 144.242 103.111Z" fill="#A7005F"/>
<path d="M111.156 87.7862C114.317 92.2202 117.311 96.7504 120.246 101.317C121.737 103.586 123.154 105.898 124.592 108.199C126.044 110.49 127.421 112.827 128.819 115.15L128.461 115.091C129.979 113.988 131.501 112.89 133.048 111.82C131.639 113.051 130.202 114.254 128.764 115.452L128.559 115.622L128.407 115.392C126.894 113.135 125.363 110.89 123.906 108.602C122.433 106.321 120.94 104.053 119.524 101.741C116.64 97.1448 113.815 92.5143 111.156 87.7862Z" fill="#A7005F"/>
<path d="M113.852 155.694L72.0297 197.548L66.6399 198.376C66.6399 198.376 83.4548 166.674 92.509 168.954C98.3305 154.45 103.073 143.468 103.073 143.468L113.852 155.694Z" fill="#00064F"/>
<path d="M107.459 117.648C107.459 117.648 91.8625 123.785 92.5093 135.802C93.1562 147.82 125.241 164.62 125.241 164.62L101.348 196.097L105.875 196.304L140.51 164.207L124.396 143.747C124.396 143.747 130.065 133.731 128.211 124.407L107.459 117.648Z" fill="#000B6A"/>
<path d="M105.876 196.304L122.062 201.365H98.6562L101.348 196.096L105.876 196.304Z" fill="#FF1076"/>
<path d="M72.0289 197.547L86.5131 201.31H65.7852L67.1617 198.057L72.0289 197.547Z" fill="#FF1076"/>
<path d="M160.704 85.2759L162.266 77.2031L164.881 88.067C164.881 88.067 163.808 90.0155 161.938 89.3437L160.704 85.2759Z" fill="#FFB369"/>
<path d="M124.397 143.747C121.982 141.474 119.896 138.966 117.886 136.405C115.909 133.818 114.013 131.175 112.447 128.296C114.864 130.567 116.95 133.075 118.958 135.64C120.931 138.227 122.828 140.87 124.397 143.747Z" fill="#00064F"/>
<path d="M115.73 132.05C116.584 131.924 117.474 131.734 118.325 131.487C119.179 131.234 120.024 130.93 120.775 130.427C120.172 131.093 119.392 131.613 118.598 132.074C117.791 132.533 116.97 132.932 116.081 133.289L115.73 132.05Z" fill="#00064F"/>
<path d="M139.842 65.8835C140.121 66.8905 140.302 67.8834 140.465 68.8763L140.22 68.6271C141.122 68.7337 142.018 68.8827 142.912 69.0432L144.359 69.3053L142.944 69.6457C141.689 69.9488 140.421 70.207 139.12 70.356C140.312 69.8345 141.535 69.4196 142.77 69.051L142.804 69.6534C141.905 69.5198 141.009 69.3746 140.12 69.1884L139.886 69.1396L139.875 68.9392C139.819 67.9155 139.782 66.8918 139.842 65.8835Z" fill="#FA9144"/>
<path d="M139.58 72.4358C139.04 72.8994 138.418 73.2642 137.742 73.543C137.071 73.8153 136.311 74.0118 135.486 73.8397C134.613 73.6663 134.083 72.7569 134.102 72.0491C134.078 71.6843 134.13 71.3298 134.163 70.9818C134.266 70.6427 134.345 70.3036 134.466 69.9786C134.493 70.6748 134.468 71.3517 134.611 71.9759C134.739 72.6066 135.081 73.1024 135.653 73.218C136.229 73.358 136.915 73.2308 137.576 73.078C138.243 72.911 138.902 72.6708 139.58 72.4358Z" fill="#FA9144"/>
<path d="M124.897 65.5052C125.066 65.1662 125.303 64.8412 125.652 64.6074C125.962 64.3582 126.579 64.2234 127.002 64.5445C127.42 64.8206 127.592 65.2227 127.742 65.5862C127.878 65.9625 127.953 66.3376 128.009 66.7165L128.057 67.0415L127.745 67.0504C127.424 67.0581 126.99 67.1237 126.984 67.2007C126.953 67.2585 127.05 67.4358 127.15 67.5655C127.258 67.7017 127.388 67.8301 127.519 67.9624C127.336 67.9085 127.165 67.8263 126.999 67.7222C126.845 67.6092 126.638 67.5116 126.598 67.202C126.602 66.8436 126.919 66.7139 127.092 66.633C127.292 66.5508 127.488 66.5123 127.686 66.4801L127.423 66.8154C127.231 66.15 127.062 65.3768 126.643 65.0107C126.456 64.8412 126.176 64.7924 125.843 64.9375C125.529 65.0724 125.2 65.2676 124.897 65.5052Z" fill="#FA9144"/>
<path d="M138.859 65.8521C138.859 66.3222 138.624 66.7024 138.334 66.7024C138.045 66.7024 137.81 66.3222 137.81 65.8521C137.81 65.382 138.045 65.0018 138.334 65.0018C138.624 65.0018 138.859 65.382 138.859 65.8521Z" fill="#010E5C"/>
<path d="M142 66.2664C142 66.7365 141.765 67.1167 141.475 67.1167C141.186 67.1167 140.951 66.7365 140.951 66.2664C140.951 65.7976 141.186 65.4161 141.475 65.4161C141.765 65.4161 142 65.7976 142 66.2664Z" fill="#010E5C"/>
<path d="M139.612 63.509C139.612 63.509 138.811 60.7269 136.285 63.2136L139.612 63.509Z" fill="#00269F"/>
<path d="M141.213 63.8642C141.213 63.8642 143.492 62.1481 143.553 64.4563L141.213 63.8642Z" fill="#00269F"/>
<path d="M199.244 410.233L152.116 237.496H304.153L199.244 410.233Z" fill="#00C2C2"/>
<path d="M246.948 237.496H174.698L210.864 348.191H236.925L282.09 273.821L246.948 237.496Z" fill="#00A7A1"/>
<path d="M402.214 297.16H220.632L144.456 40.934H326.038L402.214 297.16Z" fill="white"/>
<path d="M230.509 120.845H182.538L162.415 53.1542H210.385L230.509 120.845Z" fill="#B6C4F1"/>
<path d="M312.022 61.8589H227.968L225.537 53.1542H309.591L312.022 61.8589Z" fill="#B6C4F1"/>
<path d="M317.378 79.5076H233.324L230.893 70.8028H314.946L317.378 79.5076Z" fill="#B6C4F1"/>
<path d="M322.734 97.1562H238.679L236.248 88.4515H320.303L322.734 97.1562Z" fill="#B6C4F1"/>
<path d="M328.09 114.805H244.035L241.604 106.1H325.659L328.09 114.805Z" fill="#B6C4F1"/>
<path d="M333.445 132.454H249.391L246.96 123.749H331.015L333.445 132.454Z" fill="#B6C4F1"/>
<path d="M338.801 150.102H254.746L252.315 141.398H336.37L338.801 150.102Z" fill="#B6C4F1"/>
<path d="M435.729 334.418H254.145L177.969 78.1917H359.553L435.729 334.418Z" fill="#DBE2FF"/>
<path d="M266.593 160.663H218.622L198.498 92.972H246.469L266.593 160.663Z" fill="#B6C4F1"/>
<path d="M348.106 101.677H264.052L261.62 92.9723H345.674L348.106 101.677Z" fill="#B6C4F1"/>
<path d="M353.461 119.326H269.407L266.976 110.621H351.03L353.461 119.326Z" fill="#B6C4F1"/>
<path d="M358.817 136.975H274.762L272.332 128.27H356.386L358.817 136.975Z" fill="#B6C4F1"/>
<path d="M364.173 154.623H280.119L277.688 145.918H361.742L364.173 154.623Z" fill="#B6C4F1"/>
<path d="M369.529 172.271H285.475L283.043 163.567H367.097L369.529 172.271Z" fill="#B6C4F1"/>
<path d="M374.884 189.92H290.83L288.399 181.216H372.453L374.884 189.92Z" fill="#B6C4F1"/>
<path d="M440.994 276.658L393.067 115.449H211.485L287.661 371.675H407.046L440.994 276.658Z" fill="white"/>
<path d="M304.012 197.912H256.042L235.918 130.221H283.889L304.012 197.912Z" fill="#DBE2FF"/>
<path d="M385.526 138.926H301.472L299.039 130.221H383.094L385.526 138.926Z" fill="#DBE2FF"/>
<path d="M390.881 156.575H306.826L304.396 147.87H388.45L390.881 156.575Z" fill="#DBE2FF"/>
<path d="M396.237 174.223H312.182L309.751 165.519H393.806L396.237 174.223Z" fill="#DBE2FF"/>
<path d="M401.593 191.872H317.539L315.108 183.167H399.162L401.593 191.872Z" fill="#DBE2FF"/>
<path d="M406.949 209.521H322.895L320.463 200.817H404.517L406.949 209.521Z" fill="#DBE2FF"/>
<path d="M412.304 227.17H328.25L325.819 218.465H409.873L412.304 227.17Z" fill="#DBE2FF"/>
<path d="M336.716 232.046L329.831 219.319H270.779L266.065 232.046L199.244 410.234H420.749L487.57 232.046H336.716Z" fill="#00FBFF"/>
<path d="M310.796 324.992H317.128L315.628 329.278H309.295L304.96 341.665H300.054L310.555 311.662H323.533L322.034 315.948H313.962L310.796 324.992Z" fill="#006CFF"/>
<path d="M333.929 311.662H338.835L328.334 341.665H323.428L333.929 311.662Z" fill="#006CFF"/>
<path d="M350.434 311.662H355.34L346.338 337.379H354.41L352.911 341.665H339.933L350.434 311.662Z" fill="#006CFF"/>
<path d="M374.066 324.305H380.8L379.299 328.593H372.565L369.489 337.38H377.962L376.462 341.666H363.083L373.586 311.661H386.964L385.463 315.948H376.99L374.066 324.305Z" fill="#006CFF"/>
<path d="M404.75 311.318C409.522 311.318 411.014 314.061 409.334 318.863L409.005 319.804H404.367L404.801 318.562C405.552 316.42 404.945 315.604 403.384 315.604C401.823 315.604 400.646 316.42 399.895 318.562C397.735 324.734 406.918 325.893 403.918 334.465C402.238 339.265 398.78 342.009 393.964 342.009C389.147 342.009 387.611 339.265 389.29 334.465L389.935 332.622H394.573L393.824 334.764C393.074 336.908 393.785 337.679 395.346 337.679C396.907 337.679 398.156 336.908 398.907 334.764C401.067 328.592 391.883 327.435 394.883 318.863C396.565 314.061 399.979 311.318 404.75 311.318Z" fill="#006CFF"/>
<path d="M523.619 190.257C523.619 190.257 519.16 184.405 518.074 182.315C516.986 180.225 516.226 183.255 516.768 184.301C517.312 185.345 512.203 185.345 512.203 185.345L514.703 190.883L520.466 194.123L523.619 190.257Z" fill="#FFB369"/>
<path d="M574.138 366.66L556.765 376.802L580.734 374.002L580.257 370.433L574.138 366.66Z" fill="#FF1076"/>
<path d="M560.598 365.994L542.108 374.995L564.999 372.486L565.112 371L560.598 365.994Z" fill="#FF1076"/>
<path d="M525.853 265.959L565.344 434.048" stroke="#000B6A" stroke-width="4" stroke-miterlimit="10"/>
<path d="M560.509 265.959L600 434.048" stroke="#000B6A" stroke-width="4" stroke-miterlimit="10"/>
<path d="M550.878 265.959L511.387 434.048" stroke="#000B6A" stroke-width="4" stroke-miterlimit="10"/>
<path d="M516.223 265.959L476.731 434.048" stroke="#000B6A" stroke-width="4" stroke-miterlimit="10"/>
<path d="M566.956 290.359H532.3" stroke="#000B6A" stroke-width="4" stroke-miterlimit="10"/>
<path d="M573.001 319.02H538.345" stroke="#000B6A" stroke-width="4" stroke-miterlimit="10"/>
<path d="M579.045 347.68H544.389" stroke="#000B6A" stroke-width="4" stroke-miterlimit="10"/>
<path d="M588.045 377.68H553.389" stroke="#000B6A" stroke-width="4" stroke-miterlimit="10"/>
<path d="M595.09 412.339H560.434" stroke="#000B6A" stroke-width="4" stroke-miterlimit="10"/>
<path d="M511.07 290.359H545.726" stroke="#000B6A" stroke-width="2.4" stroke-miterlimit="10"/>
<path d="M505.026 319.02H539.682" stroke="#000B6A" stroke-width="2.4" stroke-miterlimit="10"/>
<path d="M498.981 347.68H533.637" stroke="#000B6A" stroke-width="2.4" stroke-miterlimit="10"/>
<path d="M488.981 377.68H523.637" stroke="#000B6A" stroke-width="2.4" stroke-miterlimit="10"/>
<path d="M481.601 412.339H516.257" stroke="#000B6A" stroke-width="2.4" stroke-miterlimit="10"/>
<path d="M564.135 267.121H511.347V261.313H564.135V267.121Z" fill="#FF1076"/>
<path d="M542.988 138.297C542.988 138.297 540.997 151.097 540.374 154.326C536.143 159.83 535.77 160.785 535.77 160.785L540.374 162.102C540.374 162.102 541.742 167.843 541.992 170.354C549.707 170.953 557.549 169.877 557.549 169.877L556.305 187.58L564.02 189.973L563.523 148.345L563.275 138.896C563.275 138.896 546.846 136.622 542.988 138.297Z" fill="#FFB369"/>
<path d="M563.685 165.584L557.653 165.893L551.219 152.134L549.772 151.593L549.047 143.09C549.047 143.09 539.96 141.853 537.87 140.153C535.778 138.452 541.489 139.225 541.489 139.225C541.489 139.225 532.882 135.437 535.376 134.588C537.87 133.738 543.176 134.665 543.176 134.665C543.176 134.665 534.733 130.878 537.225 129.641C539.718 128.404 555.965 129.023 569.154 139.766C567.785 144.481 563.685 165.584 563.685 165.584Z" fill="#00269F"/>
<path d="M550.455 153.01C550.455 153.01 552.944 149.422 555.184 153.249C557.425 157.078 552.445 161.623 550.206 158.394" fill="#FFB369"/>
<path d="M550.455 153.01C550.807 152.422 551.3 151.9 551.946 151.54C552.599 151.188 553.524 151.213 554.149 151.672C555.378 152.543 556.062 153.948 556.082 155.413C556.015 156.869 555.256 158.256 554.026 159.084C553.408 159.479 552.643 159.734 551.889 159.62C551.134 159.492 550.546 158.979 550.206 158.393C550.672 158.901 551.265 159.298 551.927 159.307C552.576 159.345 553.21 159.078 553.72 158.686C554.732 157.872 555.37 156.647 555.414 155.397C555.402 154.778 555.303 154.148 554.997 153.588C554.719 153.018 554.338 152.452 553.849 152.071C553.368 151.658 552.698 151.581 552.083 151.823C551.46 152.053 550.923 152.509 550.455 153.01Z" fill="#FA9144"/>
<path d="M539.006 247.162L560.597 367.994L565.111 373.001L557.301 256.504L574.138 366.659L580.257 370.433L569.453 259.507C569.453 259.507 573.619 248.162 561.814 241.824C550.011 235.482 539.006 247.162 539.006 247.162Z" fill="#009BFF"/>
<path d="M546.234 197.609L523.048 189.202L521.995 191.835L536.432 201.66L546.234 197.609Z" fill="#F40061"/>
<path d="M495.068 184.071L547.725 249.783C547.725 249.783 556.973 248.756 563.178 239.984L508.233 174.072L495.068 184.071Z" fill="#010E5C"/>
<path d="M486.164 115.79C462.165 92.7234 433.766 82.6212 422.733 93.2257C420.372 95.4966 419.003 98.5356 418.537 102.132C432.268 100.488 453.841 110.602 472.701 128.729C491.561 146.855 502.083 167.589 500.374 180.785C504.116 180.338 507.278 179.023 509.639 176.754C520.673 166.149 510.162 138.856 486.164 115.79Z" fill="#FFCC00"/>
<g opacity="0.300003">
<path d="M502.909 183.223C491.876 193.826 463.477 183.725 439.479 160.659C415.479 137.594 404.97 110.299 416.002 99.6948C427.035 89.0916 455.434 99.1939 479.432 122.259C503.432 145.325 513.942 172.62 502.909 183.223Z" fill="white"/>
</g>
<g opacity="0.300003">
<path d="M418.967 102.545C420.811 100.485 423.559 99.2451 426.365 98.7223C429.198 98.2137 432.112 98.3152 434.925 98.7621C440.583 99.6394 445.916 101.724 450.931 104.226C455.939 106.771 460.639 109.82 465.022 113.221C469.414 116.613 473.459 120.395 477.146 124.456C472.905 120.929 468.556 117.57 464.064 114.425C459.55 111.314 454.895 108.396 449.992 105.944C445.114 103.467 439.991 101.381 434.64 100.246C431.967 99.6908 429.224 99.3967 426.509 99.6587C423.787 99.8578 421.128 100.81 418.967 102.545Z" fill="white"/>
</g>
<path d="M447.128 153.307C424.234 131.301 414.205 105.263 424.731 95.1467L422.733 93.2265L409.271 106.165C398.238 116.769 408.749 144.062 432.747 167.129C456.746 190.194 485.144 200.296 496.177 189.693L509.639 176.753L507.641 174.833C497.116 184.949 470.024 175.311 447.128 153.307Z" fill="#FFCC00"/>
<path d="M507.921 174.188C497.707 184.003 470.955 174.208 448.168 152.307C425.381 130.407 415.189 104.695 425.402 94.8778C435.615 85.062 462.368 94.8586 485.155 116.76C507.941 138.66 518.134 164.37 507.921 174.188ZM486.164 115.79C462.166 92.7238 433.767 82.6216 422.733 93.226C411.7 103.829 422.211 131.124 446.21 154.19C470.208 177.255 498.607 187.357 509.64 176.754C520.673 166.149 510.162 138.855 486.164 115.79Z" fill="#FFEFA7"/>
<path d="M577.78 190.812C577.78 190.812 556.181 184.263 543.859 182.87C531.102 199.171 520.23 211.85 520.23 211.85C520.23 211.85 519.216 207.809 517.041 210.873C508.2 201.818 506.025 196.385 506.025 196.385L502.835 197.22L515.011 225.642L538.061 205.023L539.511 247.377L563.43 242.779C563.43 242.779 565.024 240.551 561.11 239.157C566.329 227.036 580.681 196.245 577.78 190.812Z" fill="#FF1076"/>
<path d="M536.701 208.223L528.983 226.393L547.725 249.781C547.725 249.781 556.973 248.757 563.178 239.984L536.701 208.223Z" fill="#010E5C"/>
<path d="M506.025 196.385C506.025 196.385 509.56 193.355 510.296 191.228C511.035 189.1 509.875 189.202 508.084 190.012C509.243 184.745 508.399 183.124 505.977 183.53C503.551 183.934 499.588 192.679 502.835 197.219L506.025 196.385Z" fill="#FFB369"/>
<path d="M545.185 163.511C545.219 163.877 545.105 164.222 544.94 164.542C544.778 164.868 544.515 165.14 544.211 165.365C543.599 165.806 542.743 165.943 542.065 165.641C542.402 165.467 542.706 165.368 542.978 165.211C543.249 165.063 543.503 164.923 543.737 164.745C543.984 164.583 544.203 164.388 544.448 164.19C544.684 163.983 544.913 163.757 545.185 163.511Z" fill="#FA9144"/>
<path d="M542.641 153.646C542.641 154.256 542.383 154.75 542.065 154.75C541.748 154.75 541.491 154.256 541.491 153.646C541.491 153.036 541.748 152.541 542.065 152.541C542.383 152.541 542.641 153.036 542.641 153.646Z" fill="#010E5C"/>
<path d="M541.491 149.937C541.491 149.937 543.954 147.175 544.939 151.12L541.491 149.937Z" fill="#010E5C"/>
<path d="M169.446 257.294C169.446 257.294 171.922 263.353 172.821 266.815C175.974 269.195 177.55 270.492 177.55 270.492L174.173 272.656C174.173 272.656 174.847 278.498 173.722 281.094C168.545 282.61 162.241 282.61 162.241 282.61L163.368 295.375L157.739 295.807L152.111 259.243L169.446 257.294Z" fill="#FFB369"/>
<path d="M143.924 352.887L135.547 443.603L140.968 441.235L154.516 370.171L151.806 445.461L158.705 440.963L169.789 351.229L143.924 352.887Z" fill="#000B6A"/>
<path d="M199.182 307.609C199.182 307.609 198.796 299.453 199.491 298.638C200.185 297.821 201.266 298.711 201.266 298.711C201.266 298.711 203.039 294.633 204.814 294.262C206.589 293.892 206.589 294.708 205.123 296.19C203.657 297.674 203.194 298.711 203.194 298.711C203.194 298.711 206.434 300.714 206.358 302.418C206.28 304.124 204.119 307.683 203.117 305.013C203.194 306.793 201.266 308.128 201.266 308.128L199.182 307.609Z" fill="#FFB369"/>
<path d="M144.274 321.821L139.98 321.305L144.917 310.233L144.274 321.821ZM198.824 306.923L185.626 324.021L179.889 299.203C179.889 299.203 160.378 293.136 145.267 293.504C139.337 301.408 129.9 327.829 129.9 327.829L144.054 328.38L142.398 353.252L172.045 352.333L175.68 321.079L185.435 341.854L202.268 308.578L198.824 306.923Z" fill="white"/>
<path d="M155.396 279.135L158.326 279.001L164.326 269.076L162.652 259.822L169.446 257.294C169.446 257.294 176.886 252.984 168.373 251.373C159.861 249.763 149.814 257.811 149.814 257.811L155.065 279.159" fill="#00269F"/>
<path d="M165.76 269.037C165.76 269.037 161.212 265.987 161.107 269.648C161.001 273.306 164.914 274.525 166.182 273.509" fill="#FFB369"/>
<path d="M165.76 269.036C165.237 268.787 164.716 268.546 164.172 268.377C163.642 268.198 163.079 268.051 162.566 268.099C161.482 268.14 161.332 269.383 161.486 270.39C161.618 271.418 162.181 272.368 163.062 272.99C163.496 273.307 164.004 273.544 164.545 273.657C165.081 273.784 165.669 273.786 166.182 273.509C165.755 273.913 165.09 274.003 164.496 273.967C163.89 273.91 163.302 273.705 162.776 273.4C161.699 272.801 160.985 271.661 160.825 270.476C160.766 269.888 160.739 269.288 160.968 268.679C161.149 268.054 161.883 267.544 162.547 267.607C163.842 267.681 164.857 268.339 165.76 269.036Z" fill="#FA9144"/>
<path d="M172.951 275.948C172.862 276.352 172.631 276.742 172.214 276.996C171.799 277.281 171.152 277.217 170.763 276.952C170.363 276.693 170.073 276.356 169.878 275.986C169.668 275.624 169.535 275.235 169.461 274.83C169.781 275.114 170.021 275.428 170.296 275.701C170.566 275.975 170.831 276.238 171.114 276.408C171.398 276.594 171.67 276.636 171.991 276.554C172.314 276.464 172.633 276.216 172.951 275.948Z" fill="#FA9144"/>
<path d="M171.543 266.044C171.642 266.589 171.498 267.069 171.221 267.115C170.945 267.161 170.64 266.758 170.541 266.212C170.442 265.667 170.587 265.187 170.863 265.142C171.14 265.096 171.445 265.499 171.543 266.044Z" fill="#010E5C"/>
<path d="M171.157 263.575C171.157 263.575 169.082 261.408 168.287 264.855L171.157 263.575Z" fill="#00269F"/>
<path d="M162.381 269.99C162.59 269.653 162.905 269.341 163.336 269.204C163.761 269.046 164.294 269.124 164.661 269.382C165.442 269.871 165.775 270.667 166.082 271.392L166.217 271.713L165.873 271.683C165.737 271.671 165.587 271.661 165.494 271.681C165.419 271.707 165.41 271.649 165.462 271.799C165.578 272.031 165.809 272.245 166.015 272.461C165.73 272.336 165.464 272.194 165.228 271.945C165.177 271.877 165.113 271.789 165.12 271.648C165.128 271.486 165.279 271.397 165.362 271.361C165.555 271.283 165.717 271.278 165.884 271.261L165.676 271.553C165.494 271.215 165.329 270.872 165.11 270.568C164.888 270.27 164.681 269.961 164.389 269.765C164.108 269.566 163.779 269.457 163.42 269.509C163.064 269.567 162.702 269.746 162.381 269.99Z" fill="#FA9144"/>
<path d="M175.773 321.537C175.284 320.721 174.878 319.877 174.483 319.028C174.081 318.183 173.739 317.316 173.395 316.449C173.071 315.576 172.746 314.702 172.481 313.807C172.209 312.916 171.947 312.02 171.769 311.094C172.26 311.91 172.666 312.754 173.06 313.603C173.462 314.448 173.804 315.315 174.147 316.183C174.471 317.057 174.795 317.929 175.059 318.826C175.333 319.716 175.594 320.612 175.773 321.537Z" fill="#DBE2FF"/>
<path d="M144.274 321.82C144.421 322.373 144.48 322.921 144.526 323.47C144.58 324.019 144.574 324.567 144.564 325.112C144.538 325.66 144.508 326.206 144.417 326.75C144.334 327.296 144.24 327.841 144.054 328.38C143.907 327.829 143.847 327.279 143.801 326.731C143.746 326.182 143.754 325.635 143.764 325.088C143.792 324.542 143.821 323.995 143.912 323.452C143.995 322.907 144.091 322.362 144.274 321.82Z" fill="#DBE2FF"/>
</svg>
