<svg width="64" height="58" viewBox="0 0 64 58" fill="none" xmlns="http://www.w3.org/2000/svg">
<path d="M15.071 20.0007C7.16 22.0407 2 25.5357 2 29.5257C2 35.8467 15.215 41.0007 31.55 41.0007C33.77 41.0007 35.33 40.8837 37.4 40.7097" stroke="#004BFF" stroke-width="4" stroke-linecap="round" stroke-linejoin="round"/>
<path d="M25.5113 40.7007C24.2723 38.9127 23.0933 37.3017 21.9713 35.3007C13.7183 20.6007 11.5073 5.99067 17.0813 2.68167C20.5313 0.590667 26.2223 3.44067 32.0033 9.44367" stroke="#004BFF" stroke-width="4" stroke-linecap="round" stroke-linejoin="round"/>
<path d="M15.2867 39.1617C13.1807 47.2257 13.6067 53.3097 16.9667 55.3467C22.3157 58.5867 33.1277 49.4727 41.0957 34.9347C42.1757 32.9247 43.1447 30.9477 43.9997 29.0007" stroke="#004BFF" stroke-width="4" stroke-linecap="round" stroke-linejoin="round"/>
<path d="M32 48.5605C37.784 54.5605 43.451 57.4105 46.934 55.3195C52.484 52.0135 50.297 37.4035 42.035 22.7005C40.883 20.6695 39.704 19.0885 38.495 17.3005" stroke="#004BFF" stroke-width="4" stroke-linecap="round" stroke-linejoin="round"/>
<path d="M48.9801 38.0007C56.8161 35.9397 62.0001 32.4507 62.0001 28.4727C62.0001 22.1427 48.7761 17.0007 32.4651 17.0007C30.2241 17.0007 28.6671 17.0877 26.6001 17.2617" stroke="#004BFF" stroke-width="4" stroke-linecap="round" stroke-linejoin="round"/>
<path d="M20 29.0007C20.855 27.0207 21.821 25.0767 22.904 23.0667C30.845 8.53474 41.663 -0.603259 47.042 2.66374C50.372 4.70074 50.828 10.7817 48.722 18.8427M32.78 29.0457H32.75C32.72 29.4357 32.39 29.7657 31.97 29.7657C31.7691 29.7558 31.5796 29.6695 31.4402 29.5246C31.3008 29.3796 31.222 29.1869 31.22 28.9857C31.22 28.5657 31.55 28.2357 31.94 28.2357H31.91C32.3 28.2057 32.66 28.5657 32.66 28.9557" stroke="#004BFF" stroke-width="4" stroke-linecap="round" stroke-linejoin="round"/>
</svg>
